<?xml version="1.0" encoding="utf-8"?>
<!-- Generator: Adobe Illustrator 15.0.0, SVG Export Plug-In . SVG Version: 6.00 Build 0)  -->
<!DOCTYPE svg PUBLIC "-//W3C//DTD SVG 1.1//EN" "http://www.w3.org/Graphics/SVG/1.1/DTD/svg11.dtd">
<svg version="1.1" id="Layer_1" xmlns="http://www.w3.org/2000/svg" xmlns:xlink="http://www.w3.org/1999/xlink" x="0px" y="0px"
	 width="1242px" height="2208px" viewBox="0 0 1242 2208" enable-background="new 0 0 1242 2208" xml:space="preserve">
<g>
	<path fill="#5B3319" d="M811.755,1052.155c-17.466-82.558,45.01-190.335,48.502-281.728
		c12.896-337.359-427.811-376.265-582.886-124.525c-14.741,34.362,0,0-19.824,44.933
		c-180.98,394.646-24.85,905.744,368.579,1018.296c185.291,53.006,332.463-35.472,398.254-136.909
		C1165.111,1355.251,837.712,1174.853,811.755,1052.155z M371.082,885.175c-14.241,0-25.785-11.544-25.785-25.785
		s11.544-25.785,25.785-25.785s25.785,11.544,25.785,25.785S385.323,885.175,371.082,885.175z M473.641,803.96
		c-44.925,0-81.344-36.419-81.344-81.344s36.419-81.343,81.344-81.343s81.344,36.418,81.344,81.343S518.565,803.96,473.641,803.96z"
		/>
	<path fill="#2F160F" d="M811.754,1052.155c-17.467-82.557,45.01-190.334,48.502-281.728
		c7.71-201.681-146.695-296.683-305.271-286.704c141.48,9.059,267.244,104.208,260.269,286.704
		c-3.492,91.393-65.968,199.17-48.502,281.728c25.957,122.697,353.355,303.096,212.625,520.066
		c-49.208,75.869-143.947,144.48-266.106,152.073c143.836,8.713,256.014-67.126,311.11-152.073
		C1165.111,1355.251,837.711,1174.853,811.754,1052.155z"/>
	<circle fill="none" cx="473.641" cy="722.617" r="81.344"/>
</g>
</svg>
