<?xml version="1.0" encoding="utf-8"?>
<!-- Generator: Adobe Illustrator 15.0.0, SVG Export Plug-In . SVG Version: 6.00 Build 0)  -->
<!DOCTYPE svg PUBLIC "-//W3C//DTD SVG 1.1//EN" "http://www.w3.org/Graphics/SVG/1.1/DTD/svg11.dtd">
<svg version="1.1" id="Layer_1" xmlns="http://www.w3.org/2000/svg" xmlns:xlink="http://www.w3.org/1999/xlink" x="0px" y="0px"
	 width="1242px" height="2208px" viewBox="0 0 1242 2208" enable-background="new 0 0 1242 2208" xml:space="preserve">
<g>
	<path fill="#75C44F" d="M713.981,1702.064c0,12.668-10.269,22.936-22.936,22.936H470.865c-12.666,0-22.936-10.268-22.936-22.936
		v-110.091c0-12.669,10.27-22.936,22.936-22.936h220.181c12.667,0,22.936,10.267,22.936,22.936V1702.064z"/>
	<path fill="#75C44F" d="M69.433,1211.242c0,0-97.643-250.258-37.757-357.794c35.55-63.836,64.172-202.538,112.337-271.345
		c48.165-68.807,241.211-133.453,310.017-78.407c68.807,55.044,215.883-10.496,277.81,5.559
		c61.926,16.055,164.469,169.047,235.569,217.213c71.1,48.165,246.298-38.155,223.362,104.045s60.895,158.255,33.372,288.989
		c-27.522,130.73-95.179,213.298-157.105,284.399C1005.111,1475.001,69.433,1211.242,69.433,1211.242z"/>
	<path fill="#8BD864" d="M528.585,1647.019c0,0-284.06-18.348-362.04-146.787c-77.981-128.44-89.402-168.193-116.925-198.774
		c-27.523-30.582-50.458-111.619-10.704-204.891c39.754-93.272,41.286-162.085,44.344-214.072
		c3.058-51.985-5.521-132.292,153.502-211.803c159.021-79.511,322.011-185.349,461.151-53.853
		c139.141,131.497,218.118,14.532,276.221,35.938c58.103,21.405,99.784,108.929,108.959,145.626
		c9.174,36.697,84.155,105.503,93.329,192.659c9.174,87.156-9.229,88.683-16.877,192.655
		c-7.646,103.981,12.231,191.137-51.988,244.651c-64.219,53.513-63.687,103.976-97.324,134.559
		C976.594,1593.505,774.759,1683.717,528.585,1647.019z"/>
	<path fill="#A2E77D" d="M637.528,1534.635c43.577-4.588,282.107-71.102,358.943-181.192c76.834-110.09,32.109-67.66,1.146-36.696
		c-30.965,30.962-205.299,133.905-388.759,151.375c0,0-18.349,8.026-27.523-26.377c-9.174-34.402-20.642-56.191,18.35-64.22
		c38.99-8.027,260.317-89.448,321.097-189.218c60.779-99.768,22.937-12.614-95.184,38.989
		c-118.117,51.605-241.969,82.568-241.969,82.568s-24.082,24.083-26.375-32.11c-2.294-56.191-8.028-68.806,37.843-91.741
		c45.871-22.937,214.447-137.611,237.383-174.309c22.937-36.697,19.495-42.43-32.109-2.293
		c-51.605,40.138-184.631,104.358-215.594,115.823c-30.963,11.467-27.522,20.642-29.816-34.401
		c-2.294-55.045-1.146-76.833,33.256-89.448c34.404-12.615,158.256-106.651,182.338-136.467
		c24.083-29.816,47.019-69.954-10.321-24.082c-57.339,45.871-133.026,88.302-153.667,92.889
		c-20.643,4.587-51.605,19.495-32.11-33.257s110.09-214.448,73.394-241.971c0,0-11.469-16.055-42.431,48.165
		c-30.963,64.22-105.503,232.797-105.503,232.797s-81.422-94.036-89.449-151.375c-8.028-57.339-38.99-84.862-35.551-41.284
		c3.44,43.578,48.165,189.218,79.129,245.411c30.962,56.192,16.055,142.199-43.578,77.981
		c-59.633-64.22-112.385-163.99-112.385-163.99s-36.696-53.898-19.495,27.523c17.201,81.421,115.824,216.738,136.467,228.207
		c20.642,11.467,26.376,38.989,29.816,67.659s10.321,73.395-26.376,55.047c-36.697-18.351-172.018-126.146-185.778-158.257
		c-13.762-32.107-68.808-98.621-48.165-26.374c20.642,72.245,142.2,221.327,231.649,263.758c0,0,36.697,14.908,36.697,36.696
		c0,21.79,16.055,58.486-22.937,51.605c-38.99-6.88-247.703-110.091-271.786-153.668c-24.082-43.578-60.779-52.752-34.403-4.587
		c26.376,48.164,169.724,183.484,268.347,222.476c98.623,38.99,74.54,20.643,88.302,65.366
		c6.585,21.404,12.626,42.216,17.157,58.172c25.65,5.429,40.182,9.488,40.182,9.488c32.041,4.774,63.307,7.364,93.57,8.251
		l-25.91-98.848C605.419,1558.716,593.951,1539.222,637.528,1534.635z"/>
</g>
</svg>
