<?xml version="1.0" encoding="utf-8"?>
<!-- Generator: Adobe Illustrator 15.0.0, SVG Export Plug-In . SVG Version: 6.00 Build 0)  -->
<!DOCTYPE svg PUBLIC "-//W3C//DTD SVG 1.1//EN" "http://www.w3.org/Graphics/SVG/1.1/DTD/svg11.dtd">
<svg version="1.1" id="Layer_1" xmlns="http://www.w3.org/2000/svg" xmlns:xlink="http://www.w3.org/1999/xlink" x="0px" y="0px"
	 width="1242px" height="2208px" viewBox="0 0 1242 2208" enable-background="new 0 0 1242 2208" xml:space="preserve">
<g>
	<path fill="#EAEAAD" d="M798.072,761.786c0,0,562.82,438.169,343.735,706.356C922.722,1736.332,693.23,1717.445,620.999,1725
		c-72.23-7.555-301.722,11.332-520.806-256.857c-219.084-268.188,343.734-706.356,343.734-706.356V597.04
		C443.926,597.04,807.044,252.215,798.072,761.786z"/>
	<path fill="#D8D6A9" d="M300.548,1643.319c-114.561-285.351-15.769-326.632,114.56-507.96
		C545.438,954.03,534.106,852.032,534.106,852.032s63.152,289.604-72.824,371.757
		C325.305,1305.941,300.548,1643.319,300.548,1643.319z"/>
	<path fill="#D8D6A9" d="M941.969,1643.319c114.562-285.351,15.771-326.632-114.561-507.96
		C697.079,954.03,708.411,852.032,708.411,852.032s-63.151,289.604,72.826,371.757
		C917.214,1305.941,941.969,1643.319,941.969,1643.319z"/>
	<path fill="#D8D6A9" d="M621,1394.099c0,0-54.334,135.293-54.334,302.185c0,8.529,0.067,16.969,0.191,25.318
		c22.584,1.518,40.983,2.021,54.144,3.396c13.162-1.375,31.561-1.879,54.146-3.396c0.123-8.35,0.19-16.789,0.19-25.318
		C675.335,1529.392,621,1394.099,621,1394.099z"/>
</g>
</svg>
