<?xml version="1.0" encoding="utf-8"?>
<!-- Generator: Adobe Illustrator 15.0.0, SVG Export Plug-In . SVG Version: 6.00 Build 0)  -->
<!DOCTYPE svg PUBLIC "-//W3C//DTD SVG 1.1//EN" "http://www.w3.org/Graphics/SVG/1.1/DTD/svg11.dtd">
<svg version="1.1" id="Layer_1" xmlns="http://www.w3.org/2000/svg" xmlns:xlink="http://www.w3.org/1999/xlink" x="0px" y="0px"
	 width="1242px" height="2208px" viewBox="0 0 1242 2208" enable-background="new 0 0 1242 2208" xml:space="preserve">
<g>
	<g>
		
			<ellipse transform="matrix(0.9241 0.3821 -0.3821 0.9241 508.4279 -248.1425)" fill="#58872A" cx="879.049" cy="1156.176" rx="309.77" ry="399.074"/>
		
			<ellipse transform="matrix(0.9508 0.3097 -0.3097 0.9508 308.2106 -264.0807)" fill="#385B17" cx="985.82" cy="838.661" rx="65.318" ry="39.191"/>
	</g>
	<path fill="#73AA48" d="M755.674,964.553c99.22,239.083,29.205,495.33-156.375,572.343
		c-185.582,77.016-416.455-54.367-515.673-293.447c-99.217-239.085-29.205-495.332,156.378-572.346
		C425.585,594.089,656.458,725.472,755.674,964.553z"/>
	
		<ellipse transform="matrix(0.8913 -0.4533 0.4533 0.8913 -314.1662 192.5765)" fill="#4E772A" cx="244.637" cy="751.648" rx="76.712" ry="46.028"/>
</g>
</svg>
