<?xml version="1.0" encoding="utf-8"?>
<!-- Generator: Adobe Illustrator 15.0.0, SVG Export Plug-In . SVG Version: 6.00 Build 0)  -->
<!DOCTYPE svg PUBLIC "-//W3C//DTD SVG 1.1//EN" "http://www.w3.org/Graphics/SVG/1.1/DTD/svg11.dtd">
<svg version="1.1" id="Layer_1" xmlns="http://www.w3.org/2000/svg" xmlns:xlink="http://www.w3.org/1999/xlink" x="0px" y="0px"
	 width="1242px" height="2208px" viewBox="0 0 1242 2208" enable-background="new 0 0 1242 2208" xml:space="preserve">
<g>
	<g>
		<path fill="#6F4219" d="M672.685,875.754h-40c0-102.278-10.492-185.804-31.184-248.26
			c-15.494-46.768-36.417-81.126-62.186-102.121c-33.532-27.32-63.847-22.023-64.143-21.96l-8.084-39.175
			c1.972-0.405,48.847-9.508,97.492,30.124c31.766,25.88,56.963,66.44,74.891,120.551
			C661.51,681.435,672.685,769.194,672.685,875.754z"/>
	</g>
	<g>
		<circle fill="#882985" cx="652.685" cy="1186.1" r="538.9"/>
	</g>
	<g>
		<path fill="#3B9848" d="M50.415,845c0,0,110.192-560.731,561.825-196.304C612.24,648.696,338.729,642.144,50.415,845z"/>
	</g>
</g>
</svg>
