<?xml version="1.0" encoding="utf-8"?>
<!-- Generator: Adobe Illustrator 15.0.0, SVG Export Plug-In . SVG Version: 6.00 Build 0)  -->
<!DOCTYPE svg PUBLIC "-//W3C//DTD SVG 1.1//EN" "http://www.w3.org/Graphics/SVG/1.1/DTD/svg11.dtd">
<svg version="1.1" id="Layer_1" xmlns="http://www.w3.org/2000/svg" xmlns:xlink="http://www.w3.org/1999/xlink" x="0px" y="0px"
	 width="1242px" height="2208px" viewBox="0 0 1242 2208" enable-background="new 0 0 1242 2208" xml:space="preserve">
<g>
	<g>
		<path fill="#CEAB19" d="M757.426,888.533c0,150.07-66.031,162.689-147.482,162.689c-81.453,0-147.483-12.619-147.483-162.689
			S609.943,507.77,609.943,507.77S757.426,738.462,757.426,888.533z"/>
		<path fill="#CEAB19" d="M870.337,1040.959c-98.532,113.191-156.622,79.354-218.058,25.875
			c-61.436-53.48-102.954-106.352-4.42-219.543c98.533-113.192,361.24-190.359,361.24-190.359S968.871,927.768,870.337,1040.959z"/>
		<path fill="#CEAB19" d="M855.421,1230.063c-148.638,20.682-170.235-42.981-181.46-123.656s-7.825-147.813,140.813-168.494
			s397.454,93.605,397.454,93.605S1004.061,1209.383,855.421,1230.063z"/>
		<path fill="#CEAB19" d="M720.01,1362.902c-125.69-81.994-100.181-144.192-55.678-212.411
			c44.504-68.221,91.149-116.629,216.84-34.634c125.689,81.994,238.324,331.562,238.324,331.562S845.699,1444.897,720.01,1362.902z"
			/>
		<path fill="#CEAB19" d="M530.655,1374.189c-40.966-144.372,19.111-174.537,97.47-196.771
			c78.359-22.234,145.325-28.121,186.292,116.25c40.966,144.37-37.94,406.562-37.94,406.562S571.621,1518.561,530.655,1374.189z"/>
		<path fill="#CEAB19" d="M380.422,1258.375c63.893-135.79,129.011-119.097,202.712-84.418
			c73.703,34.678,128.077,74.207,64.185,209.998c-63.891,135.791-295.557,281.74-295.557,281.74S316.529,1394.165,380.422,1258.375z
			"/>
		<path fill="#CEAB19" d="M343.149,1072.381c137.348-60.47,175.503-5.123,208.324,69.425
			c32.821,74.548,47.879,140.064-89.468,200.535c-137.348,60.47-407.912,18.449-407.912,18.449S205.801,1132.852,343.149,1072.381z"
			/>
		<path fill="#CEAB19" d="M437.156,907.622c143.299,44.569,135.738,111.368,111.547,189.145
			c-24.19,77.778-55.85,137.082-199.149,92.512C206.254,1144.71,29.771,935.367,29.771,935.367S293.856,863.052,437.156,907.622z"/>
		<path fill="#CEAB19" d="M616.238,845.074c78.819,127.704,29.259,173.124-40.054,215.904
			c-69.313,42.781-132.129,66.724-210.951-60.98c-78.821-127.704-74.484-401.478-74.484-401.478S537.417,717.369,616.238,845.074z"
			/>
	</g>
	<g>
		<path fill="#FEE101" d="M834.543,925.433c-46.542,142.671-113.232,134.188-190.666,108.927
			c-77.438-25.262-136.298-57.737-89.756-200.408c46.544-142.671,258.301-316.247,258.301-316.247S881.085,782.762,834.543,925.433z
			"/>
		<path fill="#FEE101" d="M894.612,1105.36c-128.778,77.053-173.51,26.868-215.329-43.028
			c-41.822-69.897-64.895-133.038,63.885-210.09c128.78-77.051,402.468-68.937,402.468-68.937S1023.395,1028.311,894.612,1105.36z"
			/>
		<path fill="#FEE101" d="M821.784,1280.515c-147.722-26.439-148.512-93.658-134.162-173.838
			c14.349-80.178,38.401-142.952,186.126-116.513c147.724,26.437,348.827,212.254,348.827,212.254
			S969.509,1306.954,821.784,1280.515z"/>
		<path fill="#FEE101" d="M651.851,1364.808c-94.063-116.933-50.522-168.151,12.945-219.206
			c63.467-51.053,122.826-82.608,216.889,34.326c94.063,116.933,123.741,389.126,123.741,389.126S745.912,1481.741,651.851,1364.808
			z"/>
		<path fill="#FEE101" d="M468.332,1316.811c5.828-149.957,72.3-160.002,153.691-156.838
			c81.391,3.165,146.882,18.337,141.052,168.294c-5.828,149.957-162.159,374.748-162.159,374.748S462.503,1466.769,468.332,1316.811
			z"/>
		<path fill="#FEE101" d="M361.425,1160.114c102.855-109.279,159.586-73.212,218.898-17.386
			c59.314,55.825,98.747,110.269-4.108,219.549c-102.854,109.279-368.363,176.186-368.363,176.186
			S258.568,1269.394,361.425,1160.114z"/>
		<path fill="#FEE101" d="M383.675,971.732c149.33-14.892,168.439,49.56,176.522,130.61c8.082,81.051,2.077,148.007-147.251,162.899
			c-149.331,14.893-393.521-108.971-393.521-108.971S234.344,986.623,383.675,971.732z"/>
		<path fill="#FEE101" d="M524.144,844.252c122.411,86.815,94.506,147.975,47.385,214.415c-47.119,66.44-95.61,113-218.021,26.185
			c-122.41-86.814-225.267-340.568-225.267-340.568S401.733,757.438,524.144,844.252z"/>
		<path fill="#FEE101" d="M713.794,840.33c35.329,145.852-25.875,173.661-105.038,192.835
			c-79.164,19.174-146.309,22.455-181.638-123.397c-35.328-145.853,53.703-404.782,53.703-404.782S678.466,694.476,713.794,840.33z"
			/>
	</g>
	<circle fill="#994A10" cx="621" cy="1104" r="223.241"/>
</g>
</svg>
