<svg id="Layer_1" data-name="Layer 1" xmlns="http://www.w3.org/2000/svg" viewBox="0 0 411.75 411.75">
    <defs>
        <style>
            .cls-1{fill:#fcb919;}.cls-2{fill:#080b0c;}.cls-2,.cls-3,.cls-4{fill-rule:evenodd;}.cls-3{fill:#f0513f;}.cls-4{fill:#edf8fe;}
        </style>
    </defs>
    <title>sample</title>
    <circle class="cls-1" cx="205.87" cy="205.87" r="205.87"/>
    <path class="cls-2"
          d="M372.43,403.52c-57.63-53.45-115.46-104-180.7-66.76-1.42-8.09-.57-16.27,15.88-25.59,66.48-25.77,126.3-4,179.66,63.44Z"
          transform="translate(-100.13 -179.43)"/>
    <path class="cls-3"
          d="M305.38,471.71c-32.05,6-62.48-9.89-84.07-30.34-19.59-18.55-55-76.27-30.81-117,58-21.87,118.59-11.89,185.07,69.24C326.78,319.54,265.06,297.38,192,320.78c45.28-47.84,114.61-41.28,147.32-31.1,40.7,12.75,86.45,50.69,77.51,94.15l-79.31,73.9C326.78,465.24,316,469.71,305.38,471.71Z"
          transform="translate(-100.13 -179.43)"/>
    <path class="cls-2"
          d="M349.79,472.28a67.74,67.74,0,0,1-23.68-8.75c.48-16.26.48-25.2,7.61-37.95,15.31-21.4,43-44.13,58.2-50.88,7.71-2.09,17.89-2.19,26.35,1.52,14.74,19.69,18.26,43.66-8.37,79.13C391,465.24,372.14,475.8,349.79,472.28Z"
          transform="translate(-100.13 -179.43)"/>
    <path class="cls-4"
          d="M425.12,429.29l-.1-.85c-3.23-18.27-16.93-18.93-20-28.72-4.09-13.51,7.32-19.69,20.83-8l1.33,1.24,1,3.24c2.47,9.32,2,19.78-2.57,31.86Z"
          transform="translate(-100.13 -179.43)"/>
    <path class="cls-4"
          d="M355.31,472.85l-5-.48-.76-.75c-6.66-7.33-3.24-20,1.61-28.54,1.72-3.13,1.43-17,5.9-17.12,24.35-.38,37.38,21.31,29.67,39.57l-.76,1.52-4.75,1.81C372.9,471.71,364.34,473.42,355.31,472.85Z"
          transform="translate(-100.13 -179.43)"/>
    <path class="cls-4"
          d="M387.27,467.52a5.07,5.07,0,0,1-1-7.23,5.2,5.2,0,0,1,7.33-1,5.26,5.26,0,0,1,.95,7.32A5.15,5.15,0,0,1,387.27,467.52Z"
          transform="translate(-100.13 -179.43)"/>
    <path class="cls-4" d="M420.55,433.86a4.6,4.6,0,0,1-.95-6.47,4.62,4.62,0,1,1,7.42,5.52A4.6,4.6,0,0,1,420.55,433.86Z"
          transform="translate(-100.13 -179.43)"/>
    <path class="cls-2"
          d="M290.55,373c-12.46,6-51.27-6.09-42.42-25.87,9.32-20.92,43.55-10.74,50.69,7.9C300.72,362.91,294.35,371.19,290.55,373Z"
          transform="translate(-100.13 -179.43)"/>
    <path class="cls-2"
          d="M345.51,314c-11.12,3.61-48-6.57-41.56-20.17,6.85-14.45,39.47-5.8,47.65,7.8C354.07,307.27,348.84,312.88,345.51,314Z"
          transform="translate(-100.13 -179.43)"/>
    <path class="cls-2"
          d="M282.36,444.79c-9.51,6.18-34.8-.66-30.33-17.78,5.23-20.16,31.57-14.74,36.52.95C291.31,435.19,287,441.85,282.36,444.79Z"
          transform="translate(-100.13 -179.43)"/>
    <path class="cls-2"
          d="M217.41,394.39c-3.71.95-8.08.86-11.6-1.62-9-2.47-14.84-23.68-3.52-30.71,13.88-8.66,29.48,15.12,22.82,27.48C224.07,391.34,221,393.44,217.41,394.39Z"
          transform="translate(-100.13 -179.43)"/>
    <path class="cls-2"
          d="M408.28,345.22c-9.51,6.09-34.81-.76-30.33-17.88,1.33-5,3.89-8.46,7.22-10.56L387,316l.48.38A98.84,98.84,0,0,1,409,341.8l1,1.8Z"
          transform="translate(-100.13 -179.43)"/>
    <path class="cls-2"
          d="M234.24,296.24l-4.75-1.9h0A130,130,0,0,1,255,286.07l4.48-1,.47,4.19a7,7,0,0,1-1,3.81,7.38,7.38,0,0,1-2.86,2.28C251,298,241.56,298.33,234.24,296.24Z"
          transform="translate(-100.13 -179.43)"/>
</svg>